<?xml version="1.0" encoding="UTF-8" standalone="no"?>
<!DOCTYPE svg PUBLIC "-//W3C//DTD SVG 1.1//EN" "http://www.w3.org/Graphics/SVG/1.1/DTD/svg11.dtd">
<svg width="100%" height="100%" viewBox="0 0 100 100" version="1.1" xmlns="http://www.w3.org/2000/svg" xmlns:xlink="http://www.w3.org/1999/xlink" xml:space="preserve" xmlns:serif="http://www.serif.com/" style="fill-rule:evenodd;clip-rule:evenodd;stroke-linejoin:round;stroke-miterlimit:2;">
    <g transform="matrix(0.960149,0,0,0.960149,1.99253,1.99253)">
        <path d="M33.155,20.757C35.288,19.525 37.567,18.52 39.96,17.774L39.96,11.233C39.96,8.462 42.209,6.213 44.98,6.213L55.02,6.213C57.791,6.213 60.04,8.462 60.04,11.233L60.04,17.774C62.433,18.52 64.712,19.525 66.845,20.757L66.903,20.791C69.036,22.022 71.046,23.493 72.889,25.192L78.553,21.922C80.953,20.536 84.025,21.36 85.411,23.759L90.431,32.454C91.816,34.853 90.993,37.926 88.593,39.311L82.928,42.582C83.479,45.027 83.748,47.504 83.747,49.967L83.747,50.033C83.748,52.496 83.479,54.973 82.928,57.418L88.593,60.689C90.993,62.074 91.816,65.147 90.431,67.546L85.411,76.241C84.025,78.64 80.953,79.464 78.553,78.078L72.889,74.808C71.046,76.507 69.036,77.978 66.903,79.209L66.845,79.243C64.712,80.475 62.433,81.48 60.04,82.226L60.04,88.767C60.04,91.538 57.791,93.787 55.02,93.787L44.98,93.787C42.209,93.787 39.96,91.538 39.96,88.767L39.96,82.226C37.567,81.48 35.288,80.475 33.155,79.243L33.097,79.209C30.964,77.978 28.954,76.507 27.111,74.808L21.447,78.078C19.047,79.464 15.975,78.64 14.589,76.241L9.569,67.546C8.184,65.147 9.007,62.074 11.407,60.689L17.072,57.418C16.521,54.973 16.252,52.496 16.253,50.033L16.253,49.967C16.252,47.504 16.521,45.027 17.072,42.582L11.407,39.311C9.007,37.926 8.184,34.853 9.569,32.454L14.589,23.759C15.975,21.36 19.047,20.536 21.447,21.922L27.111,25.192C28.954,23.493 30.964,22.022 33.097,20.791L33.155,20.757ZM50,36.319C57.551,36.319 63.681,42.449 63.681,50C63.681,57.551 57.551,63.681 50,63.681C42.449,63.681 36.319,57.551 36.319,50C36.319,42.449 42.449,36.319 50,36.319Z" style="fill:white;"/>
    </g>
</svg>
